ffmpeg started on 2016-11-26 at 10:39:03
Report written to "Output/NVENCh264/results/ffmpeg/sintelll2500k.log"
Command line:
Tools/ffmpeg/ffmpeg -benchmark -y -i Input/y4m/sintel.y4m -c:v h264_nvenc -preset ll -b:v 2500k -an Output/NVENCh264/encoded/sintelll2500k.mkv
ffmpeg version N-82227-gdb23fde Copyright (c) 2000-2016 the FFmpeg developers
  built with gcc 5.4.0 (Ubuntu 5.4.0-6ubuntu1~16.04.2) 20160609
  configuration: --prefix=/home/jaroslav/ffmpeg_build --pkg-config-flags=--static --extra-cflags=-I/home/jaroslav/ffmpeg_build/include --extra-ldflags=-L/home/jaroslav/ffmpeg_build/lib --bindir=/home/jaroslav/bin --enable-gpl --enable-libass --enable-libfdk-aac --enable-libfreetype --enable-libmp3lame --enable-libopus --enable-libtheora --enable-libvorbis --enable-libvpx --enable-libx264 --enable-libx265 --enable-nvenc --enable-libmfx --enable-libxvid --enable-libgsm --enable-libopencore-amrnb --enable-version3 --enable-nonfree
  libavutil      55. 35.100 / 55. 35.100
  libavcodec     57. 66.101 / 57. 66.101
  libavformat    57. 57.100 / 57. 57.100
  libavdevice    57.  2.100 / 57.  2.100
  libavfilter     6. 66.100 /  6. 66.100
  libswscale      4.  3.100 /  4.  3.100
  libswresample   2.  4.100 /  2.  4.100
  libpostproc    54.  2.100 / 54.  2.100
Input #0, yuv4mpegpipe, from 'Input/y4m/sintel.y4m':
  Duration: 00:00:20.83, start: 0.000000, bitrate: 2057307 kb/s
    Stream #0:0: Video: rawvideo (I420 / 0x30323449), yuv420p(progressive), 4096x1744, SAR 1:1 DAR 256:109, 24 fps, 24 tbr, 24 tbn, 24 tbc
[h264_nvenc @ 0x46561c0] The variable bitrate rate-control requires the 'qmin' and/or 'qmax' option set.
Output #0, matroska, to 'Output/NVENCh264/encoded/sintelll2500k.mkv':
  Metadata:
    encoder         : Lavf57.57.100
    Stream #0:0: Video: h264 (h264_nvenc) (Main) (H264 / 0x34363248), yuv420p, 4096x1744 [SAR 1:1 DAR 256:109], q=-1--1, 2500 kb/s, 24 fps, 1k tbn, 24 tbc
    Metadata:
      encoder         : Lavc57.66.101 h264_nvenc
    Side data:
      cpb: bitrate max/min/avg: 0/0/2500000 buffer size: 5000000 vbv_delay: -1
Stream mapping:
  Stream #0:0 -> #0:0 (rawvideo (native) -> h264 (h264_nvenc))
Press [q] to stop, [?] for help
frame=   12 fps=0.0 q=0.0 size=       0kB time=00:00:00.00 bitrate=N/A speed=   0x    frame=   19 fps= 16 q=0.0 size=       0kB time=00:00:00.00 bitrate=N/A speed=   0x    frame=   24 fps= 14 q=0.0 size=       0kB time=00:00:00.00 bitrate=N/A speed=   0x    frame=   29 fps= 13 q=0.0 size=       0kB time=00:00:00.00 bitrate=N/A speed=   0x    frame=   34 fps= 11 q=41.0 size=       1kB time=00:00:00.12 bitrate=  47.4kbits/s speed=0.0416x    frame=   41 fps= 11 q=49.0 size=       1kB time=00:00:00.41 bitrate=  14.3kbits/s speed=0.109x    frame=   42 fps=6.3 q=49.0 size=       1kB time=00:00:00.45 bitrate=  13.0kbits/s speed=0.0693x    frame=   43 fps=4.3 q=49.0 size=       1kB time=00:00:00.50 bitrate=  11.9kbits/s speed=0.05x    frame=   44 fps=3.4 q=49.0 size=       1kB time=00:00:00.54 bitrate=  11.0kbits/s speed=0.0416x    frame=   45 fps=3.2 q=49.0 size=       1kB time=00:00:00.58 bitrate=  10.2kbits/s speed=0.0414x    frame=   49 fps=3.3 q=49.0 size=       1kB time=00:00:00.75 bitrate=   8.0kbits/s speed=0.0503x    frame=   58 fps=3.7 q=49.0 size=       1kB time=00:00:01.12 bitrate=   5.3kbits/s speed=0.0727x    frame=   60 fps=3.7 q=49.0 size=       1kB time=00:00:01.20 bitrate=   4.9kbits/s speed=0.0746x    frame=   63 fps=3.8 q=49.0 size=       1kB time=00:00:01.33 bitrate=   4.5kbits/s speed=0.0795x    frame=   69 fps=4.0 q=49.0 size=       1kB time=00:00:01.58 bitrate=   3.8kbits/s speed=0.0916x    frame=   79 fps=4.4 q=49.0 size=       1kB time=00:00:02.00 bitrate=   3.0kbits/s speed=0.112x    frame=   84 fps=4.5 q=49.0 size=       1kB time=00:00:02.20 bitrate=   2.7kbits/s speed=0.118x    frame=   92 fps=4.8 q=49.0 size=       1kB time=00:00:02.54 bitrate=   2.3kbits/s speed=0.132x    frame=  102 fps=5.1 q=49.0 size=       1kB time=00:00:02.95 bitrate=   2.0kbits/s speed=0.149x    frame=  112 fps=5.5 q=49.0 size=       1kB time=00:00:03.37 bitrate=   1.8kbits/s speed=0.165x    frame=  117 fps=5.6 q=49.0 size=       1kB time=00:00:03.58 bitrate=   1.7kbits/s speed=0.171x    frame=  119 fps=5.5 q=49.0 size=       1kB time=00:00:03.66 bitrate=   1.6kbits/s speed=0.171x    frame=  121 fps=5.5 q=49.0 size=       1kB time=00:00:03.75 bitrate=   1.6kbits/s speed=0.17x    frame=  123 fps=5.4 q=49.0 size=       1kB time=00:00:03.83 bitrate=   1.6kbits/s speed=0.169x    frame=  127 fps=5.4 q=49.0 size=       1kB time=00:00:04.00 bitrate=   1.5kbits/s speed=0.171x    frame=  130 fps=5.4 q=49.0 size=       1kB time=00:00:04.12 bitrate=   1.4kbits/s speed=0.172x    frame=  133 fps=5.4 q=49.0 size=       1kB time=00:00:04.25 bitrate=   1.4kbits/s speed=0.173x    frame=  140 fps=5.6 q=49.0 size=       1kB time=00:00:04.54 bitrate=   1.3kbits/s speed=0.18x    frame=  146 fps=5.6 q=48.0 size=    1454kB time=00:00:04.79 bitrate=2485.1kbits/s speed=0.184x    frame=  148 fps=5.5 q=49.0 size=    1454kB time=00:00:04.87 bitrate=2442.8kbits/s speed=0.182x    frame=  153 fps=5.5 q=49.0 size=    1454kB time=00:00:05.08 bitrate=2342.8kbits/s speed=0.184x    frame=  155 fps=5.5 q=49.0 size=    1454kB time=00:00:05.16 bitrate=2304.8kbits/s speed=0.182x    frame=  159 fps=5.5 q=49.0 size=    1454kB time=00:00:05.33 bitrate=2233.0kbits/s speed=0.184x    frame=  162 fps=5.5 q=49.0 size=    1454kB time=00:00:05.45 bitrate=2181.9kbits/s speed=0.184x    frame=  165 fps=5.4 q=49.0 size=    1454kB time=00:00:05.58 bitrate=2133.1kbits/s speed=0.184x    frame=  168 fps=5.4 q=49.0 size=    1454kB time=00:00:05.70 bitrate=2086.4kbits/s speed=0.183x    frame=  174 fps=5.4 q=49.0 size=    1454kB time=00:00:05.95 bitrate=1998.8kbits/s speed=0.186x    frame=  178 fps=5.4 q=49.0 size=    1454kB time=00:00:06.12 bitrate=1944.3kbits/s speed=0.187x    frame=  181 fps=5.3 q=49.0 size=    1454kB time=00:00:06.25 bitrate=1905.5kbits/s speed=0.184x    frame=  188 fps=5.4 q=49.0 size=    1454kB time=00:00:06.54 bitrate=1820.4kbits/s speed=0.188x    frame=  192 fps=5.4 q=49.0 size=    1454kB time=00:00:06.70 bitrate=1775.4kbits/s speed=0.188x    frame=  194 fps=5.3 q=49.0 size=    1454kB time=00:00:06.79 bitrate=1753.4kbits/s speed=0.187x    frame=  196 fps=5.3 q=49.0 size=    1454kB time=00:00:06.87 bitrate=1732.3kbits/s speed=0.186x    frame=  202 fps=5.4 q=49.0 size=    1454kB time=00:00:07.12 bitrate=1671.5kbits/s speed=0.19x    frame=  203 fps=5.3 q=49.0 size=    1454kB time=00:00:07.16 bitrate=1661.7kbits/s speed=0.188x    frame=  206 fps=5.3 q=48.0 size=    1454kB time=00:00:07.29 bitrate=1633.2kbits/s speed=0.188x    frame=  213 fps=5.4 q=47.0 size=    1454kB time=00:00:07.58 bitrate=1570.5kbits/s speed=0.193x    frame=  216 fps=5.4 q=49.0 size=    1454kB time=00:00:07.70 bitrate=1545.1kbits/s speed=0.193x    frame=  217 fps=5.3 q=49.0 size=    1454kB time=00:00:07.75 bitrate=1536.7kbits/s speed=0.191x    frame=  221 fps=5.3 q=41.0 size=    1454kB time=00:00:07.91 bitrate=1504.3kbits/s speed=0.191x    frame=  224 fps=5.3 q=42.0 size=    1454kB time=00:00:08.04 bitrate=1480.9kbits/s speed=0.19x    frame=  226 fps=5.3 q=43.0 size=    1454kB time=00:00:08.12 bitrate=1465.8kbits/s speed=0.189x    frame=  240 fps=5.5 q=46.0 size=    1454kB time=00:00:08.70 bitrate=1367.7kbits/s speed=0.199x    frame=  243 fps=5.5 q=46.0 size=    1454kB time=00:00:08.83 bitrate=1348.3kbits/s speed= 0.2x    frame=  249 fps=5.6 q=45.0 size=    1454kB time=00:00:09.08 bitrate=1311.2kbits/s speed=0.203x    frame=  254 fps=5.6 q=43.0 size=    1454kB time=00:00:09.29 bitrate=1281.7kbits/s speed=0.204x    frame=  256 fps=5.5 q=43.0 size=    1454kB time=00:00:09.37 bitrate=1270.4kbits/s speed= 0.2x    frame=  259 fps=5.4 q=43.0 size=    1454kB time=00:00:09.50 bitrate=1253.7kbits/s speed=0.199x    frame=  261 fps=5.4 q=42.0 size=    1454kB time=00:00:09.58 bitrate=1242.8kbits/s speed=0.198x    frame=  263 fps=5.3 q=41.0 size=    1454kB time=00:00:09.66 bitrate=1232.0kbits/s speed=0.197x    frame=  265 fps=5.3 q=42.0 size=    1454kB time=00:00:09.75 bitrate=1221.5kbits/s speed=0.195x    frame=  267 fps=5.3 q=41.0 size=    2943kB time=00:00:09.83 bitrate=2451.2kbits/s speed=0.194x    frame=  269 fps=5.2 q=41.0 size=    2943kB time=00:00:09.91 bitrate=2430.5kbits/s speed=0.191x    frame=  270 fps=5.1 q=42.0 size=    2943kB time=00:00:09.95 bitrate=2420.5kbits/s speed=0.19x    frame=  274 fps=5.1 q=41.0 size=    2943kB time=00:00:10.12 bitrate=2380.5kbits/s speed=0.19x    frame=  276 fps=5.1 q=41.0 size=    2943kB time=00:00:10.20 bitrate=2361.2kbits/s speed=0.188x    frame=  279 fps=5.1 q=42.0 size=    2943kB time=00:00:10.33 bitrate=2332.6kbits/s speed=0.187x    frame=  287 fps=5.1 q=40.0 size=    2943kB time=00:00:10.66 bitrate=2259.6kbits/s speed=0.191x    frame=  293 fps=5.2 q=38.0 size=    2943kB time=00:00:10.91 bitrate=2207.9kbits/s speed=0.192x    frame=  295 fps=5.1 q=37.0 size=    2943kB time=00:00:11.00 bitrate=2191.2kbits/s speed=0.192x    frame=  299 fps=5.2 q=46.0 size=    3311kB time=00:00:11.16 bitrate=2429.0kbits/s speed=0.193x    frame=  308 fps=5.2 q=42.0 size=    3311kB time=00:00:11.54 bitrate=2350.1kbits/s speed=0.196x    frame=  311 fps=5.2 q=44.0 size=    3311kB time=00:00:11.66 bitrate=2324.9kbits/s speed=0.197x    frame=  318 fps=5.3 q=42.0 size=    3311kB time=00:00:11.95 bitrate=2268.4kbits/s speed= 0.2x    frame=  322 fps=5.3 q=40.0 size=    3311kB time=00:00:12.12 bitrate=2237.1kbits/s speed= 0.2x    frame=  326 fps=5.3 q=39.0 size=    3311kB time=00:00:12.29 bitrate=2206.7kbits/s speed= 0.2x    frame=  330 fps=5.3 q=39.0 size=    3311kB time=00:00:12.45 bitrate=2177.3kbits/s speed= 0.2x    frame=  331 fps=5.3 q=38.0 size=    3311kB time=00:00:12.50 bitrate=2170.0kbits/s speed=0.199x    frame=  332 fps=5.2 q=38.0 size=    3311kB time=00:00:12.54 bitrate=2162.8kbits/s speed=0.198x    frame=  334 fps=5.2 q=37.0 size=    3311kB time=00:00:12.62 bitrate=2148.5kbits/s speed=0.197x    frame=  335 fps=5.2 q=37.0 size=    3311kB time=00:00:12.66 bitrate=2141.4kbits/s speed=0.195x    frame=  337 fps=5.1 q=36.0 size=    3311kB time=00:00:12.75 bitrate=2127.5kbits/s speed=0.195x    frame=  339 fps=5.1 q=37.0 size=    3311kB time=00:00:12.83 bitrate=2113.7kbits/s speed=0.193x    frame=  343 fps=5.1 q=37.0 size=    3311kB time=00:00:13.00 bitrate=2086.6kbits/s speed=0.193x    frame=  345 fps=5.1 q=37.0 size=    3311kB time=00:00:13.08 bitrate=2073.3kbits/s speed=0.192x    frame=  346 fps=5.0 q=37.0 size=    3311kB time=00:00:13.12 bitrate=2066.7kbits/s speed=0.191x    frame=  348 fps=5.0 q=38.0 size=    3311kB time=00:00:13.20 bitrate=2053.7kbits/s speed=0.19x    frame=  349 fps=5.0 q=37.0 size=    3311kB time=00:00:13.25 bitrate=2047.2kbits/s speed=0.189x    frame=  351 fps=4.9 q=39.0 size=    3311kB time=00:00:13.33 bitrate=2034.5kbits/s speed=0.188x    frame=  355 fps=4.9 q=38.0 size=    3311kB time=00:00:13.50 bitrate=2009.3kbits/s speed=0.187x    frame=  357 fps=4.9 q=36.0 size=    3311kB time=00:00:13.58 bitrate=1997.0kbits/s speed=0.187x    frame=  358 fps=4.9 q=37.0 size=    3311kB time=00:00:13.62 bitrate=1990.9kbits/s speed=0.186x    frame=  360 fps=4.9 q=37.0 size=    3311kB time=00:00:13.70 bitrate=1978.8kbits/s speed=0.185x    frame=  362 fps=4.8 q=37.0 size=    3311kB time=00:00:13.79 bitrate=1966.8kbits/s speed=0.184x    frame=  363 fps=4.8 q=37.0 size=    3311kB time=00:00:13.83 bitrate=1960.9kbits/s speed=0.183x    frame=  365 fps=4.8 q=37.0 size=    3311kB time=00:00:13.91 bitrate=1949.1kbits/s speed=0.183x    frame=  367 fps=4.8 q=37.0 size=    3311kB time=00:00:14.00 bitrate=1937.5kbits/s speed=0.182x    frame=  369 fps=4.8 q=36.0 size=    3311kB time=00:00:14.08 bitrate=1926.1kbits/s speed=0.182x    frame=  375 fps=4.8 q=36.0 size=    3311kB time=00:00:14.33 bitrate=1892.5kbits/s speed=0.183x    frame=  380 fps=4.8 q=36.0 size=    3311kB time=00:00:14.54 bitrate=1865.3kbits/s speed=0.184x    frame=  399 fps=5.0 q=40.0 size=    3311kB time=00:00:15.33 bitrate=1769.1kbits/s speed=0.192x    frame=  402 fps=5.0 q=40.0 size=    3311kB time=00:00:15.45 bitrate=1754.8kbits/s speed=0.192x    frame=  404 fps=5.0 q=40.0 size=    3311kB time=00:00:15.54 bitrate=1745.3kbits/s speed=0.191x    frame=  419 fps=5.1 q=36.0 size=    4852kB time=00:00:16.16 bitrate=2458.6kbits/s speed=0.197x    frame=  440 fps=5.3 q=43.0 size=    4852kB time=00:00:17.04 bitrate=2332.4kbits/s speed=0.207x    frame=  461 fps=5.6 q=44.0 size=    5266kB time=00:00:17.91 bitrate=2407.5kbits/s speed=0.216x    frame=  482 fps=5.8 q=38.0 size=    5266kB time=00:00:18.79 bitrate=2295.5kbits/s speed=0.225x    frame=  500 fps=6.0 q=39.0 Lsize=    6309kB time=00:00:20.79 bitrate=2485.6kbits/s speed=0.248x    
video:6305kB audio:0kB subtitle:0kB other streams:0kB global headers:0kB muxing overhead: 0.069983%
bench: utime=1.288s
bench: maxrss=1188272kB
